<svg width="150" height="40" viewBox="0 0 150 40" fill="none" xmlns="http://www.w3.org/2000/svg">
<path d="M52.1347 14.5021H59.5962C61.6413 14.5021 63.1897 14.9527 64.2411 15.854C65.2926 16.7495 65.8184 18.2458 65.8184 20.343C65.8184 22.4401 65.2926 23.9422 64.2411 24.8493C63.1897 25.7505 61.6413 26.2012 59.5962 26.2012H52.1347V14.5021ZM59.1369 24.9013C60.7892 24.9013 61.9851 24.5575 62.7246 23.87C63.4699 23.1825 63.8425 22.0068 63.8425 20.343C63.8425 18.6791 63.4699 17.5063 62.7246 16.8246C61.9851 16.1371 60.7892 15.7933 59.1369 15.7933H54.0933V24.9013H59.1369ZM70.423 19.641H79.9296V20.7936H70.423V24.9013H80.5795V26.2012H68.4645V14.5021H80.5795V15.7933H70.423V19.641ZM91.0471 15.7933V26.2012H89.0886V15.7933H83.0744V14.5021H97.0267V15.7933H91.0471ZM99.6772 14.5021H108.638C109.984 14.5021 110.966 14.7765 111.584 15.3253C112.208 15.8684 112.52 16.6975 112.52 17.8125C112.52 18.9217 112.197 19.7537 111.55 20.3083C110.908 20.8629 109.894 21.1402 108.508 21.1402H101.636V26.2012H99.6772V14.5021ZM107.971 19.9183C108.889 19.9183 109.548 19.745 109.946 19.3984C110.351 19.0517 110.553 18.5346 110.553 17.8471C110.553 17.1654 110.351 16.6541 109.946 16.3133C109.548 15.9666 108.889 15.7933 107.971 15.7933H101.636V19.9183H107.971ZM106.645 20.4036H108.647L112.494 26.2012H110.284L106.645 20.4036ZM115.846 14.5021H117.778V26.2012H115.846V14.5021ZM120.956 14.5021H123.365L128.27 19.5977L133.175 14.5021H135.575L129.604 20.4123L135.749 26.2012H133.348L128.27 21.2269L123.191 26.2012H120.782L126.909 20.4123L120.956 14.5021Z" fill="#583DDE"/>
<path d="M33.4391 25.6222L13 19.5021L28.6342 35.002L44.2198 19.5021L30.9921 19.1322L33.4391 25.6222Z" fill="url(#paint0_linear_1197_3705)"/>
<path d="M13 19.4963C13 19.4963 31.7005 25.1338 33.4391 25.627C34.0421 25.7852 36.7948 26.8736 39.0525 24.6352L28.6342 34.9961L13 19.4963Z" fill="url(#paint1_linear_1197_3705)"/>
<path d="M23.7806 13.3831L44.2198 19.5004L28.5856 4.00062L13 19.5004L26.2277 19.873L23.7806 13.3831Z" fill="url(#paint2_linear_1197_3705)"/>
<path d="M44.2078 19.498C44.2078 19.498 25.5073 13.8686 23.7687 13.3807C23.1657 13.2118 20.405 12.1234 18.1553 14.3618L28.5736 4.00092L44.2078 19.498Z" fill="url(#paint3_linear_1197_3705)"/>
<defs>
<linearGradient id="paint0_linear_1197_3705" x1="16.7622" y1="32.35" x2="34.3996" y2="11.8534" gradientUnits="userSpaceOnUse">
<stop offset="0.332269" stop-color="#1C0C5B"/>
<stop offset="1" stop-color="#5438DC"/>
</linearGradient>
<linearGradient id="paint1_linear_1197_3705" x1="23.4156" y1="26.2635" x2="47.5635" y2="29.355" gradientUnits="userSpaceOnUse">
<stop stop-color="#5438DC"/>
<stop offset="0.810322" stop-color="#A28EFF"/>
</linearGradient>
<linearGradient id="paint2_linear_1197_3705" x1="29.6536" y1="18.1922" x2="22.7194" y2="27.0593" gradientUnits="userSpaceOnUse">
<stop stop-color="#1C0C5B"/>
<stop offset="1" stop-color="#5438DC"/>
</linearGradient>
<linearGradient id="paint3_linear_1197_3705" x1="28.5709" y1="10.767" x2="52.7186" y2="13.859" gradientUnits="userSpaceOnUse">
<stop stop-color="#5438DC"/>
<stop offset="0.810322" stop-color="#A28EFF"/>
</linearGradient>
</defs>
</svg>
